<svg xmlns="http://www.w3.org/2000/svg" viewBox="0 0 1920 1080"><g transform="          rotate(0 960 540)           translate(-0 -0)          scale(1)        "><rect width="1920" height="1080" fill="rgb(255, 194, 186)"></rect><g transform="translate(0, 0)"><path fill="rgb(255, 206, 187)" fill-opacity="1" d="M0,151.261L32,150.032C64,148.803,128,146.345,192,145.963C256,145.582,320,147.279,384,147.469C448,147.66,512,146.345,576,129.936C640,113.526,704,82.021,768,79.361C832,76.7,896,102.883,960,94.858C1024,86.834,1088,44.601,1152,42.206C1216,39.811,1280,77.253,1344,86.58C1408,95.906,1472,77.116,1536,59.724C1600,42.332,1664,26.338,1728,34.594C1792,42.85,1856,75.355,1888,91.608L1920,107.861L1920,1080L1888,1080C1856,1080,1792,1080,1728,1080C1664,1080,1600,1080,1536,1080C1472,1080,1408,1080,1344,1080C1280,1080,1216,1080,1152,1080C1088,1080,1024,1080,960,1080C896,1080,832,1080,768,1080C704,1080,640,1080,576,1080C512,1080,448,1080,384,1080C320,1080,256,1080,192,1080C128,1080,64,1080,32,1080L0,1080Z"></path></g><g transform="translate(0, 154.28571428571428)"><path fill="rgb(255, 218, 194)" fill-opacity="1" d="M0,45.511L32,45.5C64,45.489,128,45.467,192,60.546C256,75.625,320,105.805,384,122.013C448,138.222,512,140.459,576,122.004C640,103.548,704,64.398,768,48.267C832,32.136,896,39.022,960,54.117C1024,69.211,1088,92.514,1152,108.999C1216,125.483,1280,135.15,1344,128.792C1408,122.434,1472,100.051,1536,77.277C1600,54.503,1664,31.338,1728,18.585C1792,5.831,1856,3.489,1888,2.318L1920,1.147L1920,925.714L1888,925.714C1856,925.714,1792,925.714,1728,925.714C1664,925.714,1600,925.714,1536,925.714C1472,925.714,1408,925.714,1344,925.714C1280,925.714,1216,925.714,1152,925.714C1088,925.714,1024,925.714,960,925.714C896,925.714,832,925.714,768,925.714C704,925.714,640,925.714,576,925.714C512,925.714,448,925.714,384,925.714C320,925.714,256,925.714,192,925.714C128,925.714,64,925.714,32,925.714L0,925.714Z"></path></g><g transform="translate(0, 308.57142857142856)"><path fill="rgb(255, 231, 210)" fill-opacity="1" d="M0,92.871L32,87.194C64,81.517,128,70.163,192,58.362C256,46.561,320,34.312,384,30.966C448,27.62,512,33.177,576,37.118C640,41.059,704,43.385,768,57.024C832,70.663,896,95.615,960,112.607C1024,129.6,1088,138.632,1152,144.051C1216,149.469,1280,151.272,1344,140.839C1408,130.405,1472,107.735,1536,89.698C1600,71.661,1664,58.257,1728,46.559C1792,34.86,1856,24.867,1888,19.87L1920,14.873L1920,771.429L1888,771.429C1856,771.429,1792,771.429,1728,771.429C1664,771.429,1600,771.429,1536,771.429C1472,771.429,1408,771.429,1344,771.429C1280,771.429,1216,771.429,1152,771.429C1088,771.429,1024,771.429,960,771.429C896,771.429,832,771.429,768,771.429C704,771.429,640,771.429,576,771.429C512,771.429,448,771.429,384,771.429C320,771.429,256,771.429,192,771.429C128,771.429,64,771.429,32,771.429L0,771.429Z"></path></g><g transform="translate(0, 462.85714285714283)"><path fill="rgb(255, 243, 232)" fill-opacity="1" d="M0,133.442L32,136.405C64,139.367,128,145.291,192,148.463C256,151.636,320,152.056,384,143.263C448,134.471,512,116.465,576,105.222C640,93.978,704,89.496,768,80.339C832,71.182,896,57.35,960,68.276C1024,79.201,1088,114.885,1152,129.766C1216,144.647,1280,138.725,1344,137.041C1408,135.358,1472,137.913,1536,134.949C1600,131.984,1664,123.501,1728,102.338C1792,81.175,1856,47.332,1888,30.411L1920,13.489L1920,617.143L1888,617.143C1856,617.143,1792,617.143,1728,617.143C1664,617.143,1600,617.143,1536,617.143C1472,617.143,1408,617.143,1344,617.143C1280,617.143,1216,617.143,1152,617.143C1088,617.143,1024,617.143,960,617.143C896,617.143,832,617.143,768,617.143C704,617.143,640,617.143,576,617.143C512,617.143,448,617.143,384,617.143C320,617.143,256,617.143,192,617.143C128,617.143,64,617.143,32,617.143L0,617.143Z"></path></g><g transform="translate(0, 617.1428571428571)"><path fill="rgb(255, 251, 248)" fill-opacity="1" d="M0,139.334L32,127.891C64,116.447,128,93.56,192,74.098C256,54.637,320,38.601,384,38.27C448,37.94,512,53.315,576,74.74C640,96.165,704,123.64,768,125.288C832,126.936,896,102.757,960,88.508C1024,74.26,1088,69.943,1152,58.47C1216,46.997,1280,28.369,1344,18.834C1408,9.299,1472,8.857,1536,17.245C1600,25.632,1664,42.848,1728,66.182C1792,89.515,1856,118.965,1888,133.69L1920,148.414L1920,462.857L1888,462.857C1856,462.857,1792,462.857,1728,462.857C1664,462.857,1600,462.857,1536,462.857C1472,462.857,1408,462.857,1344,462.857C1280,462.857,1216,462.857,1152,462.857C1088,462.857,1024,462.857,960,462.857C896,462.857,832,462.857,768,462.857C704,462.857,640,462.857,576,462.857C512,462.857,448,462.857,384,462.857C320,462.857,256,462.857,192,462.857C128,462.857,64,462.857,32,462.857L0,462.857Z"></path></g><g transform="translate(0, 771.4285714285714)"><path fill="rgb(255, 255, 254)" fill-opacity="1" d="M0,119.98L32,103.497C64,87.013,128,54.047,192,58.103C256,62.159,320,103.238,384,109.655C448,116.072,512,87.827,576,81.207C640,74.587,704,89.593,768,90.518C832,91.442,896,78.285,960,79.831C1024,81.376,1088,97.624,1152,105.527C1216,113.431,1280,112.99,1344,105.409C1408,97.829,1472,83.108,1536,78.861C1600,74.613,1664,80.838,1728,83.881C1792,86.924,1856,86.784,1888,86.715L1920,86.645L1920,308.571L1888,308.571C1856,308.571,1792,308.571,1728,308.571C1664,308.571,1600,308.571,1536,308.571C1472,308.571,1408,308.571,1344,308.571C1280,308.571,1216,308.571,1152,308.571C1088,308.571,1024,308.571,960,308.571C896,308.571,832,308.571,768,308.571C704,308.571,640,308.571,576,308.571C512,308.571,448,308.571,384,308.571C320,308.571,256,308.571,192,308.571C128,308.571,64,308.571,32,308.571L0,308.571Z"></path></g><g transform="translate(0, 925.7142857142857)"><path fill="rgb(255, 255, 255)" fill-opacity="1" d="M0,77.979L32,76.888C64,75.798,128,73.617,192,63.24C256,52.862,320,34.288,384,23.196C448,12.105,512,8.496,576,13.649C640,18.803,704,32.718,768,41.466C832,50.214,896,53.795,960,54.606C1024,55.418,1088,53.46,1152,58.033C1216,62.607,1280,73.712,1344,81.713C1408,89.715,1472,94.614,1536,102.283C1600,109.953,1664,120.392,1728,118.61C1792,116.827,1856,102.821,1888,95.819L1920,88.816L1920,154.286L1888,154.286C1856,154.286,1792,154.286,1728,154.286C1664,154.286,1600,154.286,1536,154.286C1472,154.286,1408,154.286,1344,154.286C1280,154.286,1216,154.286,1152,154.286C1088,154.286,1024,154.286,960,154.286C896,154.286,832,154.286,768,154.286C704,154.286,640,154.286,576,154.286C512,154.286,448,154.286,384,154.286C320,154.286,256,154.286,192,154.286C128,154.286,64,154.286,32,154.286L0,154.286Z"></path></g></g></svg>