<svg xmlns="http://www.w3.org/2000/svg" xmlns:xlink="http://www.w3.org/1999/xlink" width="500" zoomAndPan="magnify" viewBox="0 0 375 374.999991" height="500" preserveAspectRatio="xMidYMid meet" version="1.0"><defs><g/></defs><g fill="#242323" fill-opacity="1"><g transform="translate(61.36012, 189.890378)"><g><path d="M 1.203125 0 L 16.332031 0 C 20.515625 0 22.945312 -1.753906 22.945312 -4.714844 C 22.945312 -6.710938 21.71875 -8.179688 19.625 -8.753906 L 19.625 -8.804688 C 21.40625 -9.40625 22.464844 -10.777344 22.464844 -12.507812 C 22.464844 -15.488281 20.035156 -17.222656 15.828125 -17.222656 L 1.203125 -17.222656 Z M 7.550781 -10.269531 L 7.550781 -13.78125 L 13.710938 -13.78125 C 15.203125 -13.78125 16.113281 -13.132812 16.113281 -12.027344 C 16.113281 -10.917969 15.203125 -10.269531 13.710938 -10.269531 Z M 7.527344 -3.441406 L 7.527344 -7.191406 L 14.046875 -7.191406 C 15.632812 -7.191406 16.597656 -6.496094 16.597656 -5.292969 C 16.597656 -4.136719 15.632812 -3.441406 14.046875 -3.441406 Z M 7.527344 -3.441406 "/></g></g></g><g fill="#242323" fill-opacity="1"><g transform="translate(91.325709, 189.890378)"><g><path d="M 1.203125 0 L 18.0625 0 L 18.0625 -4.640625 L 7.550781 -4.640625 L 7.550781 -17.222656 L 1.203125 -17.222656 Z M 1.203125 0 "/></g></g></g><g fill="#242323" fill-opacity="1"><g transform="translate(116.241443, 189.890378)"><g><path d="M 13.421875 0.601562 C 21.023438 0.601562 26.074219 -3.078125 26.074219 -8.609375 C 26.074219 -14.167969 21.023438 -17.824219 13.421875 -17.824219 C 5.820312 -17.824219 0.769531 -14.167969 0.769531 -8.609375 C 0.769531 -3.078125 5.820312 0.601562 13.421875 0.601562 Z M 13.421875 -3.847656 C 9.644531 -3.847656 7.121094 -5.75 7.121094 -8.609375 C 7.121094 -11.472656 9.644531 -13.375 13.421875 -13.375 C 17.199219 -13.375 19.699219 -11.472656 19.699219 -8.609375 C 19.699219 -5.75 17.199219 -3.847656 13.421875 -3.847656 Z M 13.421875 -3.847656 "/></g></g></g><g fill="#242323" fill-opacity="1"><g transform="translate(149.525501, 189.890378)"><g><path d="M 11.90625 0.410156 C 15.488281 0.410156 18.738281 -0.890625 20.347656 -2.886719 L 20.371094 -2.886719 L 20.613281 0 L 25.617188 0 L 25.617188 -9.933594 L 10.367188 -9.933594 L 10.367188 -6.78125 L 19.507812 -6.78125 C 19.265625 -4.980469 16.910156 -3.679688 13.78125 -3.679688 C 9.8125 -3.679688 7.144531 -5.605469 7.144531 -8.417969 C 7.144531 -11.402344 9.5 -13.375 12.988281 -13.375 C 15.25 -13.375 17.171875 -12.410156 17.628906 -10.96875 L 23.570312 -11.976562 C 22.851562 -15.371094 18.570312 -17.65625 12.988281 -17.65625 C 5.675781 -17.65625 0.769531 -13.878906 0.769531 -8.25 C 0.769531 -3.078125 5.242188 0.410156 11.90625 0.410156 Z M 11.90625 0.410156 "/></g></g></g><g fill="#242323" fill-opacity="1"><g transform="translate(182.424802, 189.890378)"><g><path d="M 1.203125 0 L 19.652344 0 L 19.652344 -3.898438 L 7.359375 -3.898438 L 7.359375 -7.09375 L 18.449219 -7.09375 L 18.449219 -10.4375 L 7.359375 -10.4375 L 7.359375 -13.324219 L 19.410156 -13.324219 L 19.410156 -17.222656 L 1.203125 -17.222656 Z M 1.203125 0 "/></g></g></g><g fill="#242323" fill-opacity="1"><g transform="translate(208.999767, 189.890378)"><g><path d="M 20.058594 0.480469 C 21.625 0.480469 23.523438 -0.0703125 24.460938 -0.867188 L 23.453125 -3.414062 C 23.164062 -3.078125 22.585938 -2.886719 22.175781 -2.886719 C 21.480469 -2.886719 21.046875 -3.175781 20.710938 -3.65625 L 19.53125 -5.4375 C 19.121094 -6.039062 18.59375 -6.542969 18.015625 -6.734375 L 18.015625 -6.757812 C 21.167969 -7.359375 23.019531 -9.164062 23.019531 -11.761719 C 23.019531 -15.226562 20.347656 -17.222656 15.730469 -17.222656 L 1.203125 -17.222656 L 1.203125 0 L 7.550781 0 L 7.550781 -5.699219 L 11.113281 -5.699219 C 12.316406 -5.699219 13.347656 -5.195312 14.070312 -4.160156 L 15.082031 -2.5 C 16.089844 -1.058594 17.414062 0.480469 20.058594 0.480469 Z M 7.550781 -9.234375 L 7.550781 -13.492188 L 13.804688 -13.492188 C 15.585938 -13.492188 16.644531 -12.699219 16.644531 -11.375 C 16.644531 -10.03125 15.585938 -9.234375 13.78125 -9.234375 Z M 7.550781 -9.234375 "/></g></g></g><g fill="#242323" fill-opacity="1"><g transform="translate(239.903173, 189.890378)"><g><path d="M 1.203125 0 L 7.527344 0 L 7.527344 -17.222656 L 1.203125 -17.222656 Z M 1.203125 0 "/></g></g></g><g fill="#242323" fill-opacity="1"><g transform="translate(255.079926, 189.890378)"><g><path d="M 1.203125 0 L 7.191406 0 L 7.191406 -11.328125 L 7.214844 -11.328125 L 16.453125 0 L 24.078125 0 L 24.078125 -17.222656 L 18.085938 -17.222656 L 18.085938 -6.039062 L 18.0625 -6.039062 L 8.828125 -17.222656 L 1.203125 -17.222656 Z M 1.203125 0 "/></g></g></g><g fill="#242323" fill-opacity="1"><g transform="translate(286.800932, 189.890378)"><g><path d="M 13.421875 0.601562 C 21.023438 0.601562 26.074219 -3.078125 26.074219 -8.609375 C 26.074219 -14.167969 21.023438 -17.824219 13.421875 -17.824219 C 5.820312 -17.824219 0.769531 -14.167969 0.769531 -8.609375 C 0.769531 -3.078125 5.820312 0.601562 13.421875 0.601562 Z M 13.421875 -3.847656 C 9.644531 -3.847656 7.121094 -5.75 7.121094 -8.609375 C 7.121094 -11.472656 9.644531 -13.375 13.421875 -13.375 C 17.199219 -13.375 19.699219 -11.472656 19.699219 -8.609375 C 19.699219 -5.75 17.199219 -3.847656 13.421875 -3.847656 Z M 13.421875 -3.847656 "/></g></g></g></svg>