<svg xmlns="http://www.w3.org/2000/svg" viewBox="0 0 1920 1080"><g transform="          rotate(0 960 540)           translate(-0 -0)          scale(1)        "><rect width="1920" height="1080" fill="rgb(255, 194, 186)"></rect><g transform="translate(0, 0)"><path fill="rgb(255, 208, 188)" fill-opacity="1" d="M0,176.472L24.615,175.038C49.231,173.603,98.462,170.735,147.692,170.291C196.923,169.846,246.154,171.825,295.385,172.047C344.615,172.27,393.846,170.736,443.077,151.592C492.308,132.447,541.538,95.692,590.769,92.587C640,89.483,689.231,120.03,738.462,110.668C787.692,101.306,836.923,52.034,886.154,49.24C935.385,46.446,984.615,90.129,1033.846,101.009C1083.077,111.89,1132.308,89.968,1181.538,69.678C1230.769,49.387,1280,30.728,1329.231,40.359C1378.462,49.991,1427.692,87.914,1476.923,94.752C1526.154,101.59,1575.385,77.343,1624.615,65.207C1673.846,53.071,1723.077,53.045,1772.308,70.637C1821.538,88.229,1870.769,123.439,1895.385,141.043L1920,158.648L1920,1080L1895.385,1080C1870.769,1080,1821.538,1080,1772.308,1080C1723.077,1080,1673.846,1080,1624.615,1080C1575.385,1080,1526.154,1080,1476.923,1080C1427.692,1080,1378.462,1080,1329.231,1080C1280,1080,1230.769,1080,1181.538,1080C1132.308,1080,1083.077,1080,1033.846,1080C984.615,1080,935.385,1080,886.154,1080C836.923,1080,787.692,1080,738.462,1080C689.231,1080,640,1080,590.769,1080C541.538,1080,492.308,1080,443.077,1080C393.846,1080,344.615,1080,295.385,1080C246.154,1080,196.923,1080,147.692,1080C98.462,1080,49.231,1080,24.615,1080L0,1080Z"></path></g><g transform="translate(0, 180)"><path fill="rgb(255, 221, 197)" fill-opacity="1" d="M0,166.48L24.615,143.643C49.231,120.806,98.462,75.131,147.692,56.312C196.923,37.492,246.154,45.526,295.385,63.136C344.615,80.747,393.846,107.933,443.077,127.165C492.308,146.397,541.538,157.675,590.769,150.257C640,142.839,689.231,116.726,738.462,90.156C787.692,63.587,836.923,36.561,886.154,21.682C935.385,6.803,984.615,4.071,1033.846,20.539C1083.077,37.008,1132.308,72.679,1181.538,83.891C1230.769,95.103,1280,81.857,1329.231,68.089C1378.462,54.321,1427.692,40.031,1476.923,36.128C1526.154,32.224,1575.385,38.706,1624.615,43.304C1673.846,47.902,1723.077,50.616,1772.308,66.528C1821.538,82.44,1870.769,111.551,1895.385,126.106L1920,140.661L1920,900L1895.385,900C1870.769,900,1821.538,900,1772.308,900C1723.077,900,1673.846,900,1624.615,900C1575.385,900,1526.154,900,1476.923,900C1427.692,900,1378.462,900,1329.231,900C1280,900,1230.769,900,1181.538,900C1132.308,900,1083.077,900,1033.846,900C984.615,900,935.385,900,886.154,900C836.923,900,787.692,900,738.462,900C689.231,900,640,900,590.769,900C541.538,900,492.308,900,443.077,900C393.846,900,344.615,900,295.385,900C246.154,900,196.923,900,147.692,900C98.462,900,49.231,900,24.615,900L0,900Z"></path></g><g transform="translate(0, 360)"><path fill="rgb(255, 234, 217)" fill-opacity="1" d="M0,172.276L24.615,173.328C49.231,174.38,98.462,176.484,147.692,164.312C196.923,152.14,246.154,125.691,295.385,104.647C344.615,83.604,393.846,67.967,443.077,54.318C492.308,40.67,541.538,29.011,590.769,46.237C640,63.462,689.231,109.573,738.462,136.084C787.692,162.595,836.923,169.506,886.154,173.207C935.385,176.908,984.615,177.399,1033.846,167.141C1083.077,156.883,1132.308,135.876,1181.538,122.758C1230.769,109.641,1280,104.412,1329.231,93.729C1378.462,83.046,1427.692,66.908,1476.923,79.655C1526.154,92.402,1575.385,134.033,1624.615,151.394C1673.846,168.755,1723.077,161.846,1772.308,159.882C1821.538,157.917,1870.769,160.898,1895.385,162.389L1920,163.879L1920,720L1895.385,720C1870.769,720,1821.538,720,1772.308,720C1723.077,720,1673.846,720,1624.615,720C1575.385,720,1526.154,720,1476.923,720C1427.692,720,1378.462,720,1329.231,720C1280,720,1230.769,720,1181.538,720C1132.308,720,1083.077,720,1033.846,720C984.615,720,935.385,720,886.154,720C836.923,720,787.692,720,738.462,720C689.231,720,640,720,590.769,720C541.538,720,492.308,720,443.077,720C393.846,720,344.615,720,295.385,720C246.154,720,196.923,720,147.692,720C98.462,720,49.231,720,24.615,720L0,720Z"></path></g><g transform="translate(0, 540)"><path fill="rgb(255, 245, 238)" fill-opacity="1" d="M0,134.188L24.615,114.446C49.231,94.704,98.462,55.221,147.692,59.949C196.923,64.677,246.154,113.617,295.385,124.736C344.615,135.855,393.846,109.153,443.077,86.448C492.308,63.743,541.538,45.034,590.769,44.649C640,44.263,689.231,62.201,738.462,87.197C787.692,112.193,836.923,144.247,886.154,146.17C935.385,148.092,984.615,119.883,1033.846,103.26C1083.077,86.637,1132.308,81.6,1181.538,68.215C1230.769,54.83,1280,33.097,1329.231,21.973C1378.462,10.848,1427.692,10.334,1476.923,20.119C1526.154,29.904,1575.385,49.99,1624.615,77.212C1673.846,104.434,1723.077,138.792,1772.308,150.442C1821.538,162.092,1870.769,151.034,1895.385,145.505L1920,139.977L1920,540L1895.385,540C1870.769,540,1821.538,540,1772.308,540C1723.077,540,1673.846,540,1624.615,540C1575.385,540,1526.154,540,1476.923,540C1427.692,540,1378.462,540,1329.231,540C1280,540,1230.769,540,1181.538,540C1132.308,540,1083.077,540,1033.846,540C984.615,540,935.385,540,886.154,540C836.923,540,787.692,540,738.462,540C689.231,540,640,540,590.769,540C541.538,540,492.308,540,443.077,540C393.846,540,344.615,540,295.385,540C246.154,540,196.923,540,147.692,540C98.462,540,49.231,540,24.615,540L0,540Z"></path></g><g transform="translate(0, 720)"><path fill="rgb(255, 251, 250)" fill-opacity="1" d="M0,24.594L24.615,48.557C49.231,72.519,98.462,120.445,147.692,127.931C196.923,135.417,246.154,102.464,295.385,94.741C344.615,87.018,393.846,104.525,443.077,105.604C492.308,106.682,541.538,91.333,590.769,93.136C640,94.939,689.231,113.894,738.462,123.115C787.692,132.336,836.923,131.821,886.154,122.977C935.385,114.133,984.615,96.96,1033.846,92.004C1083.077,87.049,1132.308,94.311,1181.538,97.861C1230.769,101.411,1280,101.248,1329.231,99.482C1378.462,97.716,1427.692,94.346,1476.923,91.388C1526.154,88.431,1575.385,85.887,1624.615,73.779C1673.846,61.672,1723.077,40.003,1772.308,27.062C1821.538,14.122,1870.769,9.912,1895.385,7.807L1920,5.702L1920,360L1895.385,360C1870.769,360,1821.538,360,1772.308,360C1723.077,360,1673.846,360,1624.615,360C1575.385,360,1526.154,360,1476.923,360C1427.692,360,1378.462,360,1329.231,360C1280,360,1230.769,360,1181.538,360C1132.308,360,1083.077,360,1033.846,360C984.615,360,935.385,360,886.154,360C836.923,360,787.692,360,738.462,360C689.231,360,640,360,590.769,360C541.538,360,492.308,360,443.077,360C393.846,360,344.615,360,295.385,360C246.154,360,196.923,360,147.692,360C98.462,360,49.231,360,24.615,360L0,360Z"></path></g><g transform="translate(0, 900)"><path fill="rgb(255, 255, 255)" fill-opacity="1" d="M0,54.406L24.615,56.495C49.231,58.583,98.462,62.761,147.692,63.707C196.923,64.654,246.154,62.37,295.385,67.706C344.615,73.041,393.846,85.997,443.077,95.332C492.308,104.668,541.538,110.383,590.769,119.33C640,128.278,689.231,140.458,738.462,138.378C787.692,136.298,836.923,119.958,886.154,103.063C935.385,86.167,984.615,68.715,1033.846,69.15C1083.077,69.585,1132.308,87.907,1181.538,84.997C1230.769,82.086,1280,57.943,1329.231,64.496C1378.462,71.048,1427.692,108.296,1476.923,115.607C1526.154,122.919,1575.385,100.294,1624.615,105.334C1673.846,110.375,1723.077,143.081,1772.308,156.865C1821.538,170.649,1870.769,165.512,1895.385,162.943L1920,160.374L1920,180L1895.385,180C1870.769,180,1821.538,180,1772.308,180C1723.077,180,1673.846,180,1624.615,180C1575.385,180,1526.154,180,1476.923,180C1427.692,180,1378.462,180,1329.231,180C1280,180,1230.769,180,1181.538,180C1132.308,180,1083.077,180,1033.846,180C984.615,180,935.385,180,886.154,180C836.923,180,787.692,180,738.462,180C689.231,180,640,180,590.769,180C541.538,180,492.308,180,443.077,180C393.846,180,344.615,180,295.385,180C246.154,180,196.923,180,147.692,180C98.462,180,49.231,180,24.615,180L0,180Z"></path></g></g></svg>