<svg xmlns="http://www.w3.org/2000/svg" viewBox="0 0 1920 1080"><g transform="          rotate(0 960 540)           translate(-0 -0)          scale(1)        "><rect width="1920" height="1080" fill="rgb(255, 194, 186)"></rect><g transform="translate(0, 0)"><path fill="rgb(255, 206, 187)" fill-opacity="1" d="M0,151.261L16.842,150.032C33.684,148.803,67.368,146.345,101.053,145.963C134.737,145.582,168.421,147.279,202.105,147.469C235.789,147.66,269.474,146.345,303.158,129.936C336.842,113.526,370.526,82.021,404.211,79.361C437.895,76.7,471.579,102.883,505.263,94.858C538.947,86.834,572.632,44.601,606.316,42.206C640,39.811,673.684,77.253,707.368,86.58C741.053,95.906,774.737,77.116,808.421,59.724C842.105,42.332,875.789,26.338,909.474,34.594C943.158,42.85,976.842,75.355,1010.526,81.216C1044.211,87.078,1077.895,66.294,1111.579,55.892C1145.263,45.489,1178.947,45.467,1212.632,60.546C1246.316,75.625,1280,105.805,1313.684,122.013C1347.368,138.222,1381.053,140.459,1414.737,122.004C1448.421,103.548,1482.105,64.398,1515.789,48.267C1549.474,32.136,1583.158,39.022,1616.842,54.117C1650.526,69.211,1684.211,92.514,1717.895,108.999C1751.579,125.483,1785.263,135.15,1818.947,128.792C1852.632,122.434,1886.316,100.051,1903.158,88.859L1920,77.668L1920,1080L1903.158,1080C1886.316,1080,1852.632,1080,1818.947,1080C1785.263,1080,1751.579,1080,1717.895,1080C1684.211,1080,1650.526,1080,1616.842,1080C1583.158,1080,1549.474,1080,1515.789,1080C1482.105,1080,1448.421,1080,1414.737,1080C1381.053,1080,1347.368,1080,1313.684,1080C1280,1080,1246.316,1080,1212.632,1080C1178.947,1080,1145.263,1080,1111.579,1080C1077.895,1080,1044.211,1080,1010.526,1080C976.842,1080,943.158,1080,909.474,1080C875.789,1080,842.105,1080,808.421,1080C774.737,1080,741.053,1080,707.368,1080C673.684,1080,640,1080,606.316,1080C572.632,1080,538.947,1080,505.263,1080C471.579,1080,437.895,1080,404.211,1080C370.526,1080,336.842,1080,303.158,1080C269.474,1080,235.789,1080,202.105,1080C168.421,1080,134.737,1080,101.053,1080C67.368,1080,33.684,1080,16.842,1080L0,1080Z"></path></g><g transform="translate(0, 154.28571428571428)"><path fill="rgb(255, 217, 193)" fill-opacity="1" d="M0,8.174L16.842,7.002C33.684,5.831,67.368,3.489,101.053,17.605C134.737,31.722,168.421,62.296,202.105,71.907C235.789,81.517,269.474,70.163,303.158,58.362C336.842,46.561,370.526,34.312,404.211,30.966C437.895,27.62,471.579,33.177,505.263,37.118C538.947,41.059,572.632,43.385,606.316,57.024C640,70.663,673.684,95.615,707.368,112.607C741.053,129.6,774.737,138.632,808.421,144.051C842.105,149.469,875.789,151.272,909.474,140.839C943.158,130.405,976.842,107.735,1010.526,89.698C1044.211,71.661,1077.895,58.257,1111.579,46.559C1145.263,34.86,1178.947,24.867,1212.632,39.631C1246.316,54.396,1280,93.919,1313.684,116.643C1347.368,139.367,1381.053,145.291,1414.737,148.463C1448.421,151.636,1482.105,152.056,1515.789,143.263C1549.474,134.471,1583.158,116.465,1616.842,105.222C1650.526,93.978,1684.211,89.496,1717.895,80.339C1751.579,71.182,1785.263,57.35,1818.947,68.276C1852.632,79.201,1886.316,114.885,1903.158,132.727L1920,150.569L1920,925.714L1903.158,925.714C1886.316,925.714,1852.632,925.714,1818.947,925.714C1785.263,925.714,1751.579,925.714,1717.895,925.714C1684.211,925.714,1650.526,925.714,1616.842,925.714C1583.158,925.714,1549.474,925.714,1515.789,925.714C1482.105,925.714,1448.421,925.714,1414.737,925.714C1381.053,925.714,1347.368,925.714,1313.684,925.714C1280,925.714,1246.316,925.714,1212.632,925.714C1178.947,925.714,1145.263,925.714,1111.579,925.714C1077.895,925.714,1044.211,925.714,1010.526,925.714C976.842,925.714,943.158,925.714,909.474,925.714C875.789,925.714,842.105,925.714,808.421,925.714C774.737,925.714,741.053,925.714,707.368,925.714C673.684,925.714,640,925.714,606.316,925.714C572.632,925.714,538.947,925.714,505.263,925.714C471.579,925.714,437.895,925.714,404.211,925.714C370.526,925.714,336.842,925.714,303.158,925.714C269.474,925.714,235.789,925.714,202.105,925.714C168.421,925.714,134.737,925.714,101.053,925.714C67.368,925.714,33.684,925.714,16.842,925.714L0,925.714Z"></path></g><g transform="translate(0, 308.57142857142856)"><path fill="rgb(255, 229, 208)" fill-opacity="1" d="M0,132.803L16.842,134.08C33.684,135.358,67.368,137.913,101.053,134.949C134.737,131.984,168.421,123.501,202.105,102.338C235.789,81.175,269.474,47.332,303.158,51.385C336.842,55.438,370.526,97.386,404.211,106.916C437.895,116.447,471.579,93.56,505.263,74.098C538.947,54.637,572.632,38.601,606.316,38.27C640,37.94,673.684,53.315,707.368,74.74C741.053,96.165,774.737,123.64,808.421,125.288C842.105,126.936,875.789,102.757,909.474,88.508C943.158,74.26,976.842,69.943,1010.526,58.47C1044.211,46.997,1077.895,28.369,1111.579,18.834C1145.263,9.299,1178.947,8.857,1212.632,17.245C1246.316,25.632,1280,42.848,1313.684,66.182C1347.368,89.515,1381.053,118.965,1414.737,128.95C1448.421,138.936,1482.105,129.458,1515.789,108.236C1549.474,87.013,1583.158,54.047,1616.842,58.103C1650.526,62.159,1684.211,103.238,1717.895,109.655C1751.579,116.072,1785.263,87.827,1818.947,81.207C1852.632,74.587,1886.316,89.593,1903.158,97.096L1920,104.599L1920,771.429L1903.158,771.429C1886.316,771.429,1852.632,771.429,1818.947,771.429C1785.263,771.429,1751.579,771.429,1717.895,771.429C1684.211,771.429,1650.526,771.429,1616.842,771.429C1583.158,771.429,1549.474,771.429,1515.789,771.429C1482.105,771.429,1448.421,771.429,1414.737,771.429C1381.053,771.429,1347.368,771.429,1313.684,771.429C1280,771.429,1246.316,771.429,1212.632,771.429C1178.947,771.429,1145.263,771.429,1111.579,771.429C1077.895,771.429,1044.211,771.429,1010.526,771.429C976.842,771.429,943.158,771.429,909.474,771.429C875.789,771.429,842.105,771.429,808.421,771.429C774.737,771.429,741.053,771.429,707.368,771.429C673.684,771.429,640,771.429,606.316,771.429C572.632,771.429,538.947,771.429,505.263,771.429C471.579,771.429,437.895,771.429,404.211,771.429C370.526,771.429,336.842,771.429,303.158,771.429C269.474,771.429,235.789,771.429,202.105,771.429C168.421,771.429,134.737,771.429,101.053,771.429C67.368,771.429,33.684,771.429,16.842,771.429L0,771.429Z"></path></g><g transform="translate(0, 462.85714285714283)"><path fill="rgb(255, 239, 227)" fill-opacity="1" d="M0,65.128L16.842,73.252C33.684,81.376,67.368,97.624,101.053,105.527C134.737,113.431,168.421,112.99,202.105,105.409C235.789,97.829,269.474,83.108,303.158,78.861C336.842,74.613,370.526,80.838,404.211,83.881C437.895,86.924,471.579,86.784,505.263,85.27C538.947,83.756,572.632,80.868,606.316,78.333C640,75.798,673.684,73.617,707.368,63.24C741.053,52.862,774.737,34.288,808.421,23.196C842.105,12.105,875.789,8.496,909.474,13.649C943.158,18.803,976.842,32.718,1010.526,41.466C1044.211,50.214,1077.895,53.795,1111.579,54.606C1145.263,55.418,1178.947,53.46,1212.632,58.033C1246.316,62.607,1280,73.712,1313.684,81.713C1347.368,89.715,1381.053,94.614,1414.737,102.283C1448.421,109.953,1482.105,120.392,1515.789,118.61C1549.474,116.827,1583.158,102.821,1616.842,88.339C1650.526,73.857,1684.211,58.898,1717.895,59.271C1751.579,59.644,1785.263,75.349,1818.947,72.854C1852.632,70.36,1886.316,49.666,1903.158,39.319L1920,28.971L1920,617.143L1903.158,617.143C1886.316,617.143,1852.632,617.143,1818.947,617.143C1785.263,617.143,1751.579,617.143,1717.895,617.143C1684.211,617.143,1650.526,617.143,1616.842,617.143C1583.158,617.143,1549.474,617.143,1515.789,617.143C1482.105,617.143,1448.421,617.143,1414.737,617.143C1381.053,617.143,1347.368,617.143,1313.684,617.143C1280,617.143,1246.316,617.143,1212.632,617.143C1178.947,617.143,1145.263,617.143,1111.579,617.143C1077.895,617.143,1044.211,617.143,1010.526,617.143C976.842,617.143,943.158,617.143,909.474,617.143C875.789,617.143,842.105,617.143,808.421,617.143C774.737,617.143,741.053,617.143,707.368,617.143C673.684,617.143,640,617.143,606.316,617.143C572.632,617.143,538.947,617.143,505.263,617.143C471.579,617.143,437.895,617.143,404.211,617.143C370.526,617.143,336.842,617.143,303.158,617.143C269.474,617.143,235.789,617.143,202.105,617.143C168.421,617.143,134.737,617.143,101.053,617.143C67.368,617.143,33.684,617.143,16.842,617.143L0,617.143Z"></path></g><g transform="translate(0, 617.1428571428571)"><path fill="rgb(255, 247, 243)" fill-opacity="1" d="M0,124.752L16.842,115.055C33.684,105.359,67.368,85.966,101.053,90.287C134.737,94.607,168.421,122.641,202.105,134.456C235.789,146.271,269.474,141.867,303.158,129.505C336.842,117.144,370.526,96.824,404.211,95.577C437.895,94.331,471.579,112.157,505.263,110.693C538.947,109.229,572.632,88.473,606.316,79.939C640,71.404,673.684,75.09,707.368,67.017C741.053,58.943,774.737,39.111,808.421,42.338C842.105,45.564,875.789,71.851,909.474,68.672C943.158,65.493,976.842,32.849,1010.526,27.843C1044.211,22.837,1077.895,45.468,1111.579,66.396C1145.263,87.323,1178.947,106.546,1212.632,95.491C1246.316,84.435,1280,43.101,1313.684,40.805C1347.368,38.51,1381.053,75.255,1414.737,81.062C1448.421,86.869,1482.105,61.739,1515.789,55.193C1549.474,48.647,1583.158,60.685,1616.842,64.261C1650.526,67.838,1684.211,62.953,1717.895,72.21C1751.579,81.468,1785.263,104.868,1818.947,97.238C1852.632,89.608,1886.316,50.949,1903.158,31.619L1920,12.289L1920,462.857L1903.158,462.857C1886.316,462.857,1852.632,462.857,1818.947,462.857C1785.263,462.857,1751.579,462.857,1717.895,462.857C1684.211,462.857,1650.526,462.857,1616.842,462.857C1583.158,462.857,1549.474,462.857,1515.789,462.857C1482.105,462.857,1448.421,462.857,1414.737,462.857C1381.053,462.857,1347.368,462.857,1313.684,462.857C1280,462.857,1246.316,462.857,1212.632,462.857C1178.947,462.857,1145.263,462.857,1111.579,462.857C1077.895,462.857,1044.211,462.857,1010.526,462.857C976.842,462.857,943.158,462.857,909.474,462.857C875.789,462.857,842.105,462.857,808.421,462.857C774.737,462.857,741.053,462.857,707.368,462.857C673.684,462.857,640,462.857,606.316,462.857C572.632,462.857,538.947,462.857,505.263,462.857C471.579,462.857,437.895,462.857,404.211,462.857C370.526,462.857,336.842,462.857,303.158,462.857C269.474,462.857,235.789,462.857,202.105,462.857C168.421,462.857,134.737,462.857,101.053,462.857C67.368,462.857,33.684,462.857,16.842,462.857L0,462.857Z"></path></g><g transform="translate(0, 771.4285714285714)"><path fill="rgb(255, 252, 251)" fill-opacity="1" d="M0,113.966L16.842,108.096C33.684,102.226,67.368,90.486,101.053,94.716C134.737,98.946,168.421,119.147,202.105,119.427C235.789,119.707,269.474,100.066,303.158,77.974C336.842,55.882,370.526,31.337,404.211,29.422C437.895,27.506,471.579,48.219,505.263,69.596C538.947,90.974,572.632,113.015,606.316,106.779C640,100.542,673.684,66.027,707.368,49.356C741.053,32.685,774.737,33.857,808.421,47.831C842.105,61.805,875.789,88.581,909.474,106.282C943.158,123.984,976.842,132.611,1010.526,126.013C1044.211,119.416,1077.895,97.593,1111.579,95.972C1145.263,94.351,1178.947,112.932,1212.632,112.4C1246.316,111.868,1280,92.223,1313.684,90.76C1347.368,89.298,1381.053,106.018,1414.737,110.023C1448.421,114.028,1482.105,105.319,1515.789,93.319C1549.474,81.318,1583.158,66.026,1616.842,57.207C1650.526,48.388,1684.211,46.041,1717.895,38.805C1751.579,31.569,1785.263,19.442,1818.947,34.177C1852.632,48.911,1886.316,90.507,1903.158,111.305L1920,132.102L1920,308.571L1903.158,308.571C1886.316,308.571,1852.632,308.571,1818.947,308.571C1785.263,308.571,1751.579,308.571,1717.895,308.571C1684.211,308.571,1650.526,308.571,1616.842,308.571C1583.158,308.571,1549.474,308.571,1515.789,308.571C1482.105,308.571,1448.421,308.571,1414.737,308.571C1381.053,308.571,1347.368,308.571,1313.684,308.571C1280,308.571,1246.316,308.571,1212.632,308.571C1178.947,308.571,1145.263,308.571,1111.579,308.571C1077.895,308.571,1044.211,308.571,1010.526,308.571C976.842,308.571,943.158,308.571,909.474,308.571C875.789,308.571,842.105,308.571,808.421,308.571C774.737,308.571,741.053,308.571,707.368,308.571C673.684,308.571,640,308.571,606.316,308.571C572.632,308.571,538.947,308.571,505.263,308.571C471.579,308.571,437.895,308.571,404.211,308.571C370.526,308.571,336.842,308.571,303.158,308.571C269.474,308.571,235.789,308.571,202.105,308.571C168.421,308.571,134.737,308.571,101.053,308.571C67.368,308.571,33.684,308.571,16.842,308.571L0,308.571Z"></path></g><g transform="translate(0, 925.7142857142857)"><path fill="rgb(255, 255, 255)" fill-opacity="1" d="M0,146.568L16.842,126.338C33.684,106.109,67.368,65.649,101.053,45.086C134.737,24.523,168.421,23.857,202.105,22.134C235.789,20.411,269.474,17.632,303.158,21.613C336.842,25.594,370.526,36.335,404.211,42.826C437.895,49.318,471.579,51.56,505.263,49.486C538.947,47.413,572.632,41.024,606.316,37.327C640,33.63,673.684,32.626,707.368,39.131C741.053,45.636,774.737,59.65,808.421,71.3C842.105,82.949,875.789,92.235,909.474,105.436C943.158,118.636,976.842,135.75,1010.526,122.95C1044.211,110.15,1077.895,67.436,1111.579,46.227C1145.263,25.017,1178.947,25.313,1212.632,26.075C1246.316,26.838,1280,28.067,1313.684,44.625C1347.368,61.183,1381.053,93.07,1414.737,102.617C1448.421,112.164,1482.105,99.37,1515.789,93.369C1549.474,87.369,1583.158,88.161,1616.842,81.814C1650.526,75.466,1684.211,61.981,1717.895,71.75C1751.579,81.519,1785.263,114.544,1818.947,106.521C1852.632,98.499,1886.316,49.43,1903.158,24.895L1920,0.36L1920,154.286L1903.158,154.286C1886.316,154.286,1852.632,154.286,1818.947,154.286C1785.263,154.286,1751.579,154.286,1717.895,154.286C1684.211,154.286,1650.526,154.286,1616.842,154.286C1583.158,154.286,1549.474,154.286,1515.789,154.286C1482.105,154.286,1448.421,154.286,1414.737,154.286C1381.053,154.286,1347.368,154.286,1313.684,154.286C1280,154.286,1246.316,154.286,1212.632,154.286C1178.947,154.286,1145.263,154.286,1111.579,154.286C1077.895,154.286,1044.211,154.286,1010.526,154.286C976.842,154.286,943.158,154.286,909.474,154.286C875.789,154.286,842.105,154.286,808.421,154.286C774.737,154.286,741.053,154.286,707.368,154.286C673.684,154.286,640,154.286,606.316,154.286C572.632,154.286,538.947,154.286,505.263,154.286C471.579,154.286,437.895,154.286,404.211,154.286C370.526,154.286,336.842,154.286,303.158,154.286C269.474,154.286,235.789,154.286,202.105,154.286C168.421,154.286,134.737,154.286,101.053,154.286C67.368,154.286,33.684,154.286,16.842,154.286L0,154.286Z"></path></g></g></svg>